<?xml version="1.0" encoding="UTF-8"?>
<svg version="1.1" xmlns="http://www.w3.org/2000/svg" width="500" height="500">
<path d="M0 0 C4.29 0 8.58 0 13 0 C15.35872522 5.20023046 17.09024566 10.38020051 18.625 15.875 C19.63870171 20.82335002 19.63870171 20.82335002 22 25 C22.20681396 24.27820557 22.41362793 23.55641113 22.62670898 22.81274414 C23.56026514 19.56168268 24.49881306 16.31208356 25.4375 13.0625 C25.76298828 11.92619141 26.08847656 10.78988281 26.42382812 9.61914062 C26.73642578 8.53955078 27.04902344 7.45996094 27.37109375 6.34765625 C27.65911865 5.34742432 27.94714355 4.34719238 28.24389648 3.31665039 C29 1 29 1 30 0 C31.51928038 -0.07179964 33.04167482 -0.08392007 34.5625 -0.0625 C35.38878906 -0.05347656 36.21507812 -0.04445312 37.06640625 -0.03515625 C37.70449219 -0.02355469 38.34257812 -0.01195312 39 0 C41.73961247 4.95853837 43.21179172 9.87339284 44.625 15.3125 C45.59128805 20.56745029 45.59128805 20.56745029 48 25 C48.20681396 24.27820557 48.41362793 23.55641113 48.62670898 22.81274414 C49.56026514 19.56168268 50.49881306 16.31208356 51.4375 13.0625 C51.76298828 11.92619141 52.08847656 10.78988281 52.42382812 9.61914062 C52.73642578 8.53955078 53.04902344 7.45996094 53.37109375 6.34765625 C53.65911865 5.34742432 53.94714355 4.34719238 54.24389648 3.31665039 C55 1 55 1 56 0 C58.01964199 -0.07244053 60.04167124 -0.08377188 62.0625 -0.0625 C63.71958984 -0.04896484 63.71958984 -0.04896484 65.41015625 -0.03515625 C66.26480469 -0.02355469 67.11945313 -0.01195312 68 0 C69.13568839 3.40706516 68.851943 4.28102465 67.84423828 7.62329102 C67.42853073 9.02473106 67.42853073 9.02473106 67.00442505 10.45448303 C66.69616791 11.46079269 66.38791077 12.46710236 66.0703125 13.50390625 C65.7605246 14.53813217 65.45073669 15.57235809 65.13156128 16.63792419 C64.1374658 19.94861412 63.13114763 23.25545539 62.125 26.5625 C61.45367283 28.79599739 60.78309051 31.0297188 60.11328125 33.26367188 C58.8846302 37.34577707 57.6559811 41.42786489 56.41455078 45.50610352 C56.04029465 46.73829369 56.04029465 46.73829369 55.65847778 47.99537659 C55 50 55 50 54 52 C50.37 52 46.74 52 43 52 C40.48494911 47.32392297 38.82636688 42.68341924 37.3125 37.625 C37.08755859 36.88894531 36.86261719 36.15289062 36.63085938 35.39453125 C36.08250407 33.5977926 35.54058243 31.79909253 35 30 C33.57320551 32.72436986 32.45176588 35.40766906 31.4921875 38.328125 C31.22792969 39.12734375 30.96367187 39.9265625 30.69140625 40.75 C30.28728516 41.9875 30.28728516 41.9875 29.875 43.25 C29.59785156 44.09046875 29.32070312 44.9309375 29.03515625 45.796875 C28.35404747 47.86368785 27.67665767 49.93172562 27 52 C23.04 52 19.08 52 15 52 C10.93870515 39.41526038 6.90224246 26.82260402 3 14.1875 C2.54645142 12.74008423 2.54645142 12.74008423 2.08374023 11.26342773 C1.80860596 10.36567627 1.53347168 9.4679248 1.25 8.54296875 C1.00765625 7.75946045 0.7653125 6.97595215 0.515625 6.16870117 C0 4 0 4 0 0 Z " fill="#121212" transform="translate(154,222)"/>
<path d="M0 0 C2.14918885 -0.01707423 4.2967824 -0.06091743 6.44555664 -0.10522461 C13.96479237 -0.19182987 19.82391968 -0.11165954 26.11938477 4.29516602 C28.76798952 7.20679618 30.05150897 10.51100222 30.20141602 14.45141602 C29.84567518 18.04909687 29.03948972 21.22299809 27.11938477 24.29516602 C26.45938477 24.29516602 25.79938477 24.29516602 25.11938477 24.29516602 C25.11938477 24.95516602 25.11938477 25.61516602 25.11938477 26.29516602 C26.10938477 26.62516602 27.09938477 26.95516602 28.11938477 27.29516602 C31.36713143 32.10664256 32.00998496 36.6580716 31.11938477 42.29516602 C28.7060709 47.41139142 25.27894051 50.1469649 20.11938477 52.29516602 C17.26561083 52.62611056 14.83015415 52.76841666 11.99829102 52.68579102 C11.25353012 52.68013123 10.50876923 52.67447144 9.74143982 52.66864014 C7.38757097 52.64643951 5.03528506 52.59627972 2.68188477 52.54516602 C1.07578713 52.52507967 -0.53033463 52.50683265 -2.13647461 52.49047852 C-6.05178814 52.44662911 -9.96593433 52.37772073 -13.88061523 52.29516602 C-13.90588262 45.05030051 -13.92344704 37.80544628 -13.93554688 30.56054688 C-13.9405888 28.09374568 -13.94742214 25.62694749 -13.95605469 23.16015625 C-13.96812648 19.62312073 -13.97384479 16.08612456 -13.97827148 12.54907227 C-13.98343277 11.43867081 -13.98859406 10.32826935 -13.99391174 9.18421936 C-13.99398727 8.16323654 -13.99406281 7.14225372 -13.99414062 6.09033203 C-13.99636124 5.18654312 -13.99858185 4.28275421 -14.00086975 3.35157776 C-13.67912189 -2.15046991 -4.31389637 0.02384982 0 0 Z M-0.88061523 12.29516602 C-0.88061523 21.53516602 -0.88061523 30.77516602 -0.88061523 40.29516602 C4.72938477 40.29516602 10.33938477 40.29516602 16.11938477 40.29516602 C16.77938477 38.64516602 17.43938477 36.99516602 18.11938477 35.29516602 C15.91990345 31.99594404 15.61614332 31.867067 11.99438477 31.10766602 C10.71563477 30.83954102 9.43688477 30.57141602 8.11938477 30.29516602 C8.11938477 27.32516602 8.11938477 24.35516602 8.11938477 21.29516602 C10.75938477 20.63516602 13.39938477 19.97516602 16.11938477 19.29516602 C16.79897079 16.8979717 16.79897079 16.8979717 17.11938477 14.29516602 C15.15402759 11.88394234 15.15402759 11.88394234 11.42407227 12.09985352 C9.94736809 12.11129511 8.47076676 12.13726695 6.99438477 12.17016602 C4.39563477 12.21141602 1.79688477 12.25266602 -0.88061523 12.29516602 Z " fill="#111111" transform="translate(311.880615234375,221.704833984375)"/>
<path d="M0 0 C3.96 0 7.92 0 12 0 C15.12841844 3.44656268 16.84340951 5.99282173 19 10 C19.79979006 11.33914428 20.60756072 12.67354397 21.421875 14.00390625 C23.65158694 17.64825468 25.83449086 21.31716133 28 25 C28.02505615 24.31373535 28.0501123 23.6274707 28.07592773 22.92041016 C28.19171427 19.82174183 28.31451885 16.72339077 28.4375 13.625 C28.47681641 12.54476562 28.51613281 11.46453125 28.55664062 10.3515625 C28.59853516 9.3203125 28.64042969 8.2890625 28.68359375 7.2265625 C28.72025146 6.27346191 28.75690918 5.32036133 28.79467773 4.33837891 C29 2 29 2 30 0 C33.96 0 37.92 0 42 0 C43.21618998 2.43237995 43.12688905 3.99139783 43.12939453 6.70922852 C43.13254669 7.68686661 43.13569885 8.6645047 43.13894653 9.67176819 C43.1369223 10.73012375 43.13489807 11.78847931 43.1328125 12.87890625 C43.13376923 13.96131088 43.13472595 15.04371552 43.13571167 16.15892029 C43.13639298 18.44961607 43.13454211 20.74031377 43.13037109 23.03100586 C43.12501701 26.55131328 43.13032044 30.07149341 43.13671875 33.59179688 C43.13605806 35.81250028 43.13477709 38.03320361 43.1328125 40.25390625 C43.13483673 41.31428604 43.13686096 42.37466583 43.13894653 43.46717834 C43.13421829 44.92890724 43.13421829 44.92890724 43.12939453 46.42016602 C43.12859894 47.28239273 43.12780334 48.14461945 43.12698364 49.03297424 C43 51 43 51 42 52 C37.7422151 53.04371026 34.23098406 53.21621466 30 52 C26.58054367 48.33442659 24.34159729 44.3131774 22.02148438 39.89501953 C20.48145981 37.03802368 18.70906472 34.34258028 16.9375 31.625 C15.968125 30.09875 14.99875 28.5725 14 27 C13.67 35.25 13.34 43.5 13 52 C8.71 52 4.42 52 0 52 C0 34.84 0 17.68 0 0 Z M29 26 C30 28 30 28 30 28 Z " fill="#141414" transform="translate(56,222)"/>
<path d="M0 0 C2.00389649 -0.01705751 4.00750702 -0.06092163 6.01098633 -0.10522461 C13.48490501 -0.15422155 18.68613137 0.11350997 24.97387695 4.29516602 C29.77281738 9.34020595 30.38420797 13.677011 30.3215332 20.42797852 C29.79225879 24.79300568 28.11104506 28.20447448 24.97387695 31.29516602 C22.2980957 32.51000977 22.2980957 32.51000977 19.97387695 33.29516602 C20.30709961 33.76414307 20.64032227 34.23312012 20.98364258 34.71630859 C22.48769274 36.84169976 23.98085489 38.97451532 25.47387695 41.10766602 C25.99852539 41.8456543 26.52317383 42.58364258 27.0637207 43.34399414 C27.56000977 44.05620117 28.05629883 44.7684082 28.56762695 45.50219727 C29.0284668 46.15679932 29.48930664 46.81140137 29.96411133 47.48583984 C30.97387695 49.29516602 30.97387695 49.29516602 30.97387695 52.29516602 C25.75759537 53.02870561 21.16647802 53.35048736 15.97387695 52.29516602 C12.27206107 48.78565226 10.18715662 44.84976631 7.97387695 40.29516602 C7.31387695 39.30516602 6.65387695 38.31516602 5.97387695 37.29516602 C5.77856445 34.37719727 5.77856445 34.37719727 5.84887695 31.10766602 C5.86692383 30.02098633 5.8849707 28.93430664 5.90356445 27.81469727 C5.92676758 26.98325195 5.9499707 26.15180664 5.97387695 25.29516602 C6.52817383 25.10180664 7.0824707 24.90844727 7.65356445 24.70922852 C8.74024414 24.31864258 8.74024414 24.31864258 9.84887695 23.92016602 C10.92782227 23.53731445 10.92782227 23.53731445 12.02856445 23.14672852 C14.15545689 22.35638819 14.15545689 22.35638819 15.97387695 20.29516602 C15.80945419 17.22524921 15.80945419 17.22524921 14.97387695 14.29516602 C10.4621638 12.03930944 5.0032677 12.68204223 -0.02612305 12.29516602 C-0.02612305 25.49516602 -0.02612305 38.69516602 -0.02612305 52.29516602 C-4.31612305 52.29516602 -8.60612305 52.29516602 -13.02612305 52.29516602 C-13.05076417 45.05029552 -13.06895484 37.80544919 -13.08105469 30.56054688 C-13.08609661 28.09374568 -13.09292995 25.62694749 -13.1015625 23.16015625 C-13.11363429 19.62312073 -13.11935261 16.08612456 -13.1237793 12.54907227 C-13.12894058 11.43867081 -13.13410187 10.32826935 -13.13941956 9.18421936 C-13.13949509 8.16323654 -13.13957062 7.14225372 -13.13964844 6.09033203 C-13.14186905 5.18654312 -13.14408966 4.28275421 -13.14637756 3.35157776 C-12.82693517 -2.11104528 -4.11605035 0.02437299 0 0 Z " fill="#131313" transform="translate(365.026123046875,221.704833984375)"/>
<path d="M0 0 C1.60279192 0.00015914 3.20558896 0.00585476 4.80834961 0.01586914 C5.65038437 0.01728409 6.49241913 0.01869904 7.35997009 0.02015686 C10.06024671 0.02577276 12.76044163 0.03832791 15.46069336 0.05102539 C17.28686404 0.05603834 19.11303602 0.06060161 20.93920898 0.06469727 C25.42556878 0.07574735 29.9118672 0.0930226 34.39819336 0.11352539 C35.51264834 2.34243534 35.56299622 3.64407645 35.58569336 6.11352539 C35.59987305 6.81477539 35.61405273 7.51602539 35.62866211 8.23852539 C35.39819336 10.11352539 35.39819336 10.11352539 33.39819336 12.11352539 C30.8762207 12.34057617 30.8762207 12.34057617 27.73413086 12.30883789 C26.61264648 12.30239258 25.49116211 12.29594727 24.33569336 12.28930664 C23.16006836 12.27254883 21.98444336 12.25579102 20.77319336 12.23852539 C19.58983398 12.22950195 18.40647461 12.22047852 17.18725586 12.21118164 C14.25736813 12.18755351 11.32787996 12.15461053 8.39819336 12.11352539 C8.39819336 14.42352539 8.39819336 16.73352539 8.39819336 19.11352539 C9.05416504 19.10828857 9.71013672 19.10305176 10.38598633 19.09765625 C13.34837899 19.07691267 16.31075639 19.06387363 19.27319336 19.05102539 C20.82200195 19.03845703 20.82200195 19.03845703 22.40209961 19.02563477 C23.38823242 19.02241211 24.37436523 19.01918945 25.39038086 19.01586914 C26.75718994 19.00801392 26.75718994 19.00801392 28.15161133 19 C30.39819336 19.11352539 30.39819336 19.11352539 32.39819336 20.11352539 C32.42507487 21.75927105 32.44453459 23.40513952 32.46069336 25.05102539 C32.47229492 25.96754883 32.48389648 26.88407227 32.49584961 27.82836914 C32.39819336 30.11352539 32.39819336 30.11352539 31.39819336 31.11352539 C29.69046978 31.20066371 27.97920687 31.22052546 26.26928711 31.21118164 C24.71757812 31.20634766 24.71757812 31.20634766 23.13452148 31.20141602 C22.0459082 31.19303711 20.95729492 31.1846582 19.83569336 31.17602539 C18.19697266 31.16925781 18.19697266 31.16925781 16.52514648 31.16235352 C13.81613904 31.15052379 11.10715956 31.1325877 8.39819336 31.11352539 C8.39819336 34.41352539 8.39819336 37.71352539 8.39819336 41.11352539 C9.2108667 41.10828857 10.02354004 41.10305176 10.86083984 41.09765625 C14.51911658 41.07695545 18.17738103 41.06388736 21.83569336 41.05102539 C23.11508789 41.04264648 24.39448242 41.03426758 25.71264648 41.02563477 C26.92758789 41.02241211 28.1425293 41.01918945 29.39428711 41.01586914 C30.52020264 41.01063232 31.64611816 41.00539551 32.80615234 41 C35.39819336 41.11352539 35.39819336 41.11352539 36.39819336 42.11352539 C36.49609906 43.61090663 36.527942 45.11295431 36.52319336 46.61352539 C36.52706055 47.83555664 36.52706055 47.83555664 36.53100586 49.08227539 C36.39819336 51.11352539 36.39819336 51.11352539 35.39819336 52.11352539 C32.5255528 52.21459413 29.67745708 52.25322211 26.80444336 52.24633789 C25.94258423 52.24729462 25.0807251 52.24825134 24.19274902 52.24923706 C22.36686124 52.24991889 20.54097105 52.24806444 18.71508789 52.24389648 C15.91018258 52.23854825 13.10543741 52.24384138 10.30053711 52.25024414 C8.5310055 52.24958336 6.761474 52.2483022 4.99194336 52.24633789 C4.14716431 52.24836212 3.30238525 52.25038635 2.43200684 52.25247192 C-3.48685633 52.2284757 -3.48685633 52.2284757 -4.60180664 51.11352539 C-4.70027631 49.55353491 -4.72979282 47.98911995 -4.73120117 46.42602539 C-4.73435333 45.42829102 -4.73750549 44.43055664 -4.74075317 43.40258789 C-4.73872894 42.31719727 -4.73670471 41.23180664 -4.73461914 40.11352539 C-4.73557587 39.00750977 -4.73653259 37.90149414 -4.73751831 36.76196289 C-4.73820031 34.41821231 -4.73634468 32.07445986 -4.73217773 29.73071289 C-4.72682978 26.12910751 -4.73212211 22.52762686 -4.73852539 18.92602539 C-4.73786461 16.65519178 -4.73658346 14.38435825 -4.73461914 12.11352539 C-4.73664337 11.02813477 -4.7386676 9.94274414 -4.74075317 8.82446289 C-4.73760101 7.82672852 -4.73444885 6.82899414 -4.73120117 5.80102539 C-4.73040558 4.91801758 -4.72960999 4.03500977 -4.72879028 3.12524414 C-4.5038997 -0.43755027 -3.71580201 0.11711841 0 0 Z " fill="#111111" transform="translate(113.601806640625,221.886474609375)"/>
<path d="M0 0 C5.22959612 2.98834064 7.52681129 6.14293387 9.4375 11.875 C9.75205785 16.26567012 9.76162623 20.66191848 9.8125 25.0625 C9.86857422 26.87331055 9.86857422 26.87331055 9.92578125 28.72070312 C9.99807403 36.06645243 9.47306297 41.28995378 4.4375 46.875 C-1.18765024 51.7330843 -7.80466311 53.26747209 -15.125 52.75 C-21.26467862 51.81779749 -26.39190625 49.54445899 -30.5 44.8125 C-34.73908018 38.77502217 -33.82113204 32.24993593 -33.875 25.125 C-33.90400391 23.86171875 -33.93300781 22.5984375 -33.96289062 21.296875 C-34.01085361 14.27214231 -33.92297324 9.51561217 -29.5625 3.875 C-21.79763679 -3.6855247 -9.61869437 -4.43172437 0 0 Z M-19.5625 11.875 C-21.49781061 15.74562122 -20.83442404 20.49222942 -20.875 24.75 C-20.90400391 25.75675781 -20.93300781 26.76351562 -20.96289062 27.80078125 C-21.10985845 33.49985125 -21.10985845 33.49985125 -18.76171875 38.515625 C-15.67619584 40.42283987 -13.16577674 40.74631155 -9.5625 40.875 C-6.86688065 40.07359965 -5.92837885 39.48065222 -4.47802734 37.07983398 C-2.85304366 33.16643993 -3.1935071 29.12144828 -3.1875 24.9375 C-3.16300781 24.04353516 -3.13851563 23.14957031 -3.11328125 22.22851562 C-3.09419398 17.94342258 -3.1609225 15.53038116 -5.44140625 11.80859375 C-10.33377217 7.34870217 -14.04803084 9.01171794 -19.5625 11.875 Z " fill="#111111" transform="translate(436.5625,223.125)"/>
<path d="M0 0 C3.41895045 3.21329929 5.93002769 6.2856784 6.125 11.0625 C6 14 6 14 5 15 C1.62184927 15.4307296 -1.62900501 15.504835 -5 15 C-7.125 12.5625 -7.125 12.5625 -9 10 C-12.81562149 8.81692229 -16.18409761 8.72803254 -20 10 C-20 11.32 -20 12.64 -20 14 C-18.91460937 14.39832031 -17.82921875 14.79664063 -16.7109375 15.20703125 C-15.26555893 15.74200903 -13.82025012 16.27717531 -12.375 16.8125 C-11.66214844 17.07353516 -10.94929688 17.33457031 -10.21484375 17.60351562 C4.11777954 22.92893987 4.11777954 22.92893987 7 29 C7.89025833 34.13253282 7.78417326 39.18478075 5.5 43.9375 C1.09553114 49.33297435 -3.60654245 51.03308927 -10.4375 51.875 C-18.59540698 52.31444527 -24.90480109 51.01540151 -31.33203125 45.78125 C-34.17533696 42.74483922 -35.02294651 40.03848776 -36 36 C-35.55859375 33.7578125 -35.55859375 33.7578125 -35 32 C-30.94621134 31.6558104 -27.04040512 31.45076593 -23 32 C-20.8125 34.9375 -20.8125 34.9375 -19 38 C-16.00755457 38.97723772 -13.13362982 39.27700595 -10 39 C-9.01 38.34 -8.02 37.68 -7 37 C-7 35.68 -7 34.36 -7 33 C-7.60473145 32.82460693 -8.20946289 32.64921387 -8.83251953 32.46850586 C-11.60458826 31.64930462 -14.36419531 30.79386071 -17.125 29.9375 C-18.07632813 29.66228516 -19.02765625 29.38707031 -20.0078125 29.10351562 C-26.36165065 27.09587926 -30.47344937 24.78404563 -34 19 C-35.35358177 14.9392547 -35.82031176 11.24531048 -34.31640625 7.12890625 C-31.83067899 2.33279349 -28.46738989 -0.86932938 -23.203125 -2.5859375 C-15.29696259 -4.07184746 -7.1224367 -3.81559109 0 0 Z " fill="#151515" transform="translate(261,224)"/>
<path d="M0 0 C0.66 0.33 1.32 0.66 2 1 C-0.97 3.97 -3.94 6.94 -7 10 C-7 6.04435836 -5.59478606 4.89133304 -3 2 C-2.01 1.34 -1.02 0.68 0 0 Z " fill="#5E5E5E" transform="translate(412,223)"/>
<path d="M0 0 C0.66 0.33 1.32 0.66 2 1 C-0.64 3.64 -3.28 6.28 -6 9 C-6 6 -6 6 -3.5625 3.375 C-2.716875 2.59125 -1.87125 1.8075 -1 1 C-0.67 0.67 -0.34 0.34 0 0 Z " fill="#616161" transform="translate(234,223)"/>
<path d="M0 0 C3.96 0 7.92 0 12 0 C12 0.33 12 0.66 12 1 C11.31292969 1.06058594 10.62585938 1.12117187 9.91796875 1.18359375 C8.56638672 1.30927734 8.56638672 1.30927734 7.1875 1.4375 C5.84751953 1.55931641 5.84751953 1.55931641 4.48046875 1.68359375 C1.87256441 1.93489767 1.87256441 1.93489767 -1 3 C-0.67 2.01 -0.34 1.02 0 0 Z " fill="#535353" transform="translate(210,222)"/>
</svg>
